HIERARCHY
ROOT pelvis
{
  OFFSET 0 100 0
  CHANNELS 6 Xposition Yposition Zposition Zrotation Xrotation Yrotation
  JOINT pelvis_right_femur
  {
    OFFSET -10.78128 -3.44521 -0.5502486
    CHANNELS 3 Zrotation Xrotation Yrotation
    JOINT right_femur_tibia
    {
      OFFSET -0.8047443 -44.0398 -0.1307829
      CHANNELS 3 Zrotation Xrotation Yrotation
      JOINT right_tibia_foot
      {
        OFFSET 3.006224 -47.83518 -5
        CHANNELS 3 Zrotation Xrotation Yrotation
        End Site
        {
          OFFSET 0 -5 15
        }
      }
    }
  }
  JOINT pelvis_left_femur
  {
    OFFSET 10.78128 -3.44521 -0.5502486
    CHANNELS 3 Zrotation Xrotation Yrotation
    JOINT left_femur_tibia
    {
      OFFSET 0.8047443 -44.0398 -0.1307829
      CHANNELS 3 Zrotation Xrotation Yrotation
      JOINT left_tibia_foot
      {
        OFFSET -4.370144 -48.10324 -4.275266
        CHANNELS 3 Zrotation Xrotation Yrotation
        End Site
        {
          OFFSET 0 -5 15
        }
      }
    }
  }
  JOINT pelvis_spine1
  {
    OFFSET 0 6.468898 -3.129235
    CHANNELS 3 Zrotation Xrotation Yrotation
    JOINT spine1
    {
      OFFSET 0 23.15396 4.99043
      CHANNELS 3 Zrotation Xrotation Yrotation
      JOINT spine2
      {
        OFFSET 0 20.79997 -5.064912
        CHANNELS 3 Zrotation Xrotation Yrotation
        JOINT neck
        {
          OFFSET 0 14.38658 9.616178
          CHANNELS 3 Zrotation Xrotation Yrotation
          End Site
          {
            OFFSET 0 20 0
          }
        }
      }
      JOINT right_manubrium
      {
        OFFSET -5.722621 16.35077 3.967754
        CHANNELS 3 Zrotation Xrotation Yrotation
        JOINT right_clavicle
        {
          OFFSET -13.16364 1.694482 -4.693211
          CHANNELS 3 Zrotation Xrotation Yrotation
          JOINT right_humerus
          {
            OFFSET -28.5034 -0.3100689 -2.792744
            CHANNELS 3 Zrotation Xrotation Yrotation
            JOINT right_radius
            {
              OFFSET -25.15693 0.02248979 -1.271978
              CHANNELS 3 Zrotation Xrotation Yrotation
              End Site
              {
                OFFSET -15 0 0
              }
            }
          }
        }
      }
      JOINT left_manubrium
      {
        OFFSET 5.722621 16.35077 3.967754
        CHANNELS 3 Zrotation Xrotation Yrotation
        JOINT left_clavicle
        {
          OFFSET 13.16364 1.694482 -4.693211
          CHANNELS 3 Zrotation Xrotation Yrotation
          JOINT left_humerus
          {
            OFFSET 29.39168 -1.063119 -2.237045
            CHANNELS 3 Zrotation Xrotation Yrotation
            JOINT left_radius
            {
              OFFSET 24.59957 -0.9528479 0.9047498
              CHANNELS 3 Zrotation Xrotation Yrotation
              End Site
              {
                OFFSET 15 -0 -0
              }
            }
          }
        }
      }
    }
  }
}
MOTION
Frames: 19
Frame Time: 0.0416666666667
0 103.5113 0 0.4248484 -0.560069 -0.05559316 4.537575 -18.76936 10.38264 -0 39.77722 -0 -5.390987 -16.02233 -3.270162 -6.887949 10.02531 -23.4132 -0 5.970149 -0 9.386008 -16.81655 27.63004 -3.569387 -3.080601 4.788136 2.6979 9.700536 -7.731967 1.295563 21.73418 7.133347 3.49474 -25.01095 9.530287 7.021983 -20.06812 11.93824 84.83717 36.12398 -18.63929 -0 0 17.19042 -6.292738 7.755009 3.875186 5.631729 -19.36328 -1.708784 -94.70213 26.72656 23.2809 0 0 -14.72002 8.392741 16.50102 4.524663
0.3368794 103.4996 1.39743 0.3689601 -0.9604632 -0.06872327 4.351454 -18.48026 10.11991 -0 40.56304 -0 -5.626973 -15.90373 -3.480278 -6.760473 10.34911 -23.1742 -0 6.116501 -0 8.791207 -16.91268 27.26316 -3.481945 -2.965128 4.57292 2.636761 9.587065 -7.698615 1.305672 21.96693 7.087072 3.337191 -24.88777 9.562641 6.644219 -19.91971 11.77804 85.18685 35.39939 -18.68901 -0 0 16.83341 -6.447848 7.487603 3.967812 5.488835 -19.33746 -1.781353 -94.48531 27.15659 22.87065 0 0 -14.61407 8.02179 16.53125 4.960906
0.702978 103.3034 3.01627 0.3009463 0.1945558 -0.04603827 4.998925 -21.28806 10.11401 -0 36.23336 -0 -5.061562 -15.17136 -3.134461 -6.878411 10.4262 -22.74259 -0 5.564808 -0 9.152465 -18.15947 27.02775 -3.50534 -2.872658 4.931322 2.785193 9.474227 -7.756725 1.435066 21.42817 7.137922 3.446265 -25.44539 9.775148 6.628656 -19.88357 11.73832 85.16997 35.71327 -19.08992 -0 0 16.79108 -6.126092 7.901908 3.688893 6.13987 -19.76879 -1.404105 -94.18648 26.47515 22.51594 0 0 -16.14847 9.06108 16.19055 3.940958
1.06893 102.909 4.931432 0.1494137 1.054652 0.07595651 5.524875 -23.8527 9.848652 -0 32.63952 -0 -4.805672 -14.11576 -2.945796 -6.861405 10.84636 -22.07328 -0 5.291609 -0 8.841298 -19.46705 26.34848 -3.424092 -2.686274 5.048201 2.883975 9.262202 -7.81185 1.546672 21.08364 7.177758 3.452832 -25.90014 9.990796 6.316753 -19.67914 11.55689 85.48408 35.51987 -19.59054 -0 0 16.35605 -5.972516 8.104288 3.525282 6.65825 -20.19371 -1.081135 -93.72765 26.23615 21.8427 0 0 -17.63203 9.645178 15.88657 3.451566
1.432871 102.3492 7.176518 -0.0665424 2.046727 0.3112228 6.158615 -26.54345 9.598769 -0 28.97712 -0 -4.651693 -12.77591 -2.708635 -6.81032 11.3202 -21.36659 -0 5.209327 -0 8.327383 -20.77657 25.49293 -3.293229 -2.503724 5.119285 2.99301 9.047567 -7.901295 1.632672 20.68965 7.259526 3.513566 -26.39286 10.18921 6.068079 -19.43356 11.37711 85.80539 35.51875 -20.17108 -0 0 15.86464 -5.81921 8.36364 3.377802 7.188261 -20.64251 -0.7280284 -93.33454 26.07214 21.26983 0 0 -19.19632 10.08936 15.58448 3.144218
1.785409 101.6579 9.800902 -0.3916303 3.026538 0.6801589 6.866402 -29.18122 9.327401 -0 25.6019 -0 -4.705507 -11.14154 -2.478675 -6.66124 11.92377 -20.56287 -0 5.492297 -0 7.408617 -21.98152 24.33641 -3.058847 -2.294157 5.064379 3.094783 8.821228 -8.018437 1.690446 20.31184 7.372756 3.592792 -26.86994 10.36861 5.806875 -19.10595 11.17178 86.20877 35.53499 -20.81635 -0 0 15.23051 -5.72905 8.623993 3.27713 7.662204 -21.09039 -0.3902447 -92.95847 26.05707 20.704 0 0 -20.7011 10.31986 15.29787 3.095095
2.121758 100.8899 12.85102 -0.847957 3.984779 1.18992 7.677613 -31.64681 9.087229 -0 22.63918 -0 -4.986438 -9.259444 -2.22999 -6.394058 12.59507 -19.68907 -0 6.277887 -0 6.074523 -22.91516 22.86559 -2.695332 -2.066547 4.87984 3.186978 8.613516 -8.165461 1.708988 19.93393 7.525711 3.713837 -27.30483 10.50728 5.603314 -18.70778 10.97099 86.63522 35.66881 -21.48468 -0 0 14.51492 -5.718766 8.930628 3.231008 8.054886 -21.51073 -0.09424908 -92.64028 26.13274 20.22157 0 0 -22.02865 10.35308 15.01781 3.273917
2.440304 100.1136 16.37976 -1.45148 4.842177 1.83069 8.578342 -33.75221 8.866734 -0 20.2405 -0 -5.527526 -7.215429 -1.95373 -5.977473 13.29263 -18.72897 -0 7.781132 -0 4.286207 -23.36635 21.03642 -2.168889 -1.81822 4.54411 3.260201 8.449693 -8.337309 1.677051 19.57281 7.715002 3.876033 -27.6386 10.57776 5.479051 -18.23384 10.79207 87.06581 35.91987 -22.12758 -0 0 13.73049 -5.848932 9.303231 3.267965 8.322405 -21.87619 0.110337 -92.36157 26.22934 19.8063 0 0 -23.04322 10.21471 14.72067 3.622905
2.745633 99.41323 20.44338 -2.189288 5.499081 2.563936 9.515253 -35.23837 8.619931 -0 18.51362 -0 -6.330961 -5.179962 -1.640809 -5.398892 13.93143 -17.6645 -0 10.29524 -0 2.068891 -23.07637 18.844 -1.458607 -1.554914 4.057899 3.304429 8.359377 -8.523199 1.580787 19.25411 7.929732 4.070127 -27.79824 10.54269 5.452453 -17.68719 10.65792 87.47725 36.27304 -22.68813 -0 0 12.89841 -6.189314 9.758646 3.423852 8.414259 -22.15445 0.1666868 -92.09374 26.2518 19.43464 0 0 -23.61401 9.940033 14.36963 4.062194
3.050591 98.88934 25.09168 -2.997447 5.818309 3.308843 10.36451 -35.73784 8.252902 -0 17.52287 -0 -7.349972 -3.44296 -1.306609 -4.681558 14.36211 -16.47243 -0 14.23289 -0 -0.4551272 -21.76644 16.35862 -0.5736312 -1.291405 3.460786 3.308872 8.371001 -8.700697 1.408175 19.02729 8.143149 4.264964 -27.70122 10.36112 5.513357 -17.08295 10.59098 87.8565 36.64974 -23.10554 -0 0 12.03671 -6.80607 10.2877 3.734859 8.269712 -22.30758 0.01825496 -91.79699 26.10428 19.07048 0 0 -23.62955 9.56189 13.92199 4.506878
3.37763 98.65733 30.34081 -3.734025 5.650969 3.935531 10.92869 -34.77867 7.659332 -0 17.25443 -0 -8.454011 -2.420949 -1.005633 -3.913901 14.30172 -15.14645 -0 20.09142 -0 -3.017637 -19.23183 13.77545 0.411357 -1.051765 2.872487 3.261274 8.508205 -8.827369 1.157795 18.96246 8.309319 4.409941 -27.27966 10.00188 5.625563 -16.46769 10.61328 88.18863 36.92221 -23.31717 -0 0 11.18695 -7.718867 10.84851 4.21369 7.832203 -22.29576 -0.3655138 -91.45933 25.73217 18.72452 0 0 -23.03396 9.095046 13.3483 4.905768
3.755031 98.83377 36.12698 -4.173196 4.895421 4.288609 10.97666 -31.89478 6.79016 -0 17.53864 -0 -9.424934 -2.554241 -0.8188672 -3.262804 13.2711 -13.72233 -0 28.24233 -0 -5.220468 -15.53479 11.40991 1.315838 -0.8532352 2.523935 3.14294 8.780949 -8.832466 0.8532634 19.1349 8.367053 4.452452 -26.51983 9.46563 5.739066 -15.93634 10.74073 88.44292 36.97451 -23.26181 -0 0 10.43827 -8.854312 11.37209 4.820739 7.089206 -22.10129 -0.949982 -91.13553 25.18237 18.51308 0 0 -21.89208 8.533609 12.66871 5.28129
4.202349 99.49391 42.2607 -4.065535 3.590863 4.264702 10.33967 -26.92264 5.717571 -0 17.94469 -0 -10.04042 -4.02089 -0.7751945 -2.924355 10.65752 -12.30032 -0 38.41696 -0 -6.665329 -11.2342 9.610187 1.851504 -0.6761482 2.711444 2.925164 9.169123 -8.624857 0.5532074 19.58889 8.262061 4.375805 -25.50798 8.803799 5.820615 -15.62233 10.96948 88.55978 36.83364 -22.88334 -0 0 9.915544 -10.03896 11.78912 5.461355 6.137204 -21.77695 -1.598542 -90.94732 24.63952 18.64903 0 0 -20.456 7.884352 11.99521 5.724704
4.706417 100.5997 48.43807 -3.289215 1.959028 3.906003 9.0305 -20.35934 4.597861 -0 17.80436 -0 -10.23533 -6.386832 -0.7668685 -2.979687 6.091755 -11.03007 -0 49.09598 -0 -7.171489 -7.386557 8.658324 1.737614 -0.4526146 3.592983 2.583156 9.603983 -8.137553 0.3380641 20.30249 7.98314 4.22766 -24.42661 8.110948 5.867917 -15.62619 11.25628 88.45483 36.73825 -22.12649 -0 0 9.683865 -11.10437 12.05422 6.054394 5.214858 -21.46886 -2.093334 -90.9969 24.34848 19.25438 0 0 -19.1199 7.221244 11.5244 6.294422
5.210444 101.9496 54.35711 -2.005346 0.2758544 3.388901 7.335245 -13.31192 3.560544 -0 16.57255 -0 -10.15225 -8.654192 -0.6347234 -3.250672 -0.001824848 -10.00663 -0 57.63562 -0 -6.926123 -5.022956 8.765397 0.9379478 -0.1128363 4.937607 2.129055 9.981787 -7.391066 0.2706125 21.18488 7.578988 4.090375 -23.43378 7.481677 5.861886 -15.92507 11.5205 88.0393 36.90832 -20.91832 -0 0 9.674718 -12.08414 12.1494 6.639255 4.61117 -21.31401 -2.264237 -91.24674 24.39676 20.10254 0 0 -18.16958 6.65843 11.40409 6.898302
5.645515 103.2258 59.87017 -0.6264755 -1.335134 2.881814 5.757935 -6.812207 2.701394 -0 14.31928 -0 -9.923536 -10.01354 -0.3837595 -3.342459 -6.460528 -9.12421 -0 61.66531 -0 -6.370068 -4.400135 10.03429 -0.2022239 0.3546682 6.205749 1.615324 10.23354 -6.497701 0.3621755 22.08854 7.127963 4.007951 -22.51084 6.967068 5.710188 -16.41011 11.69634 87.22423 37.14165 -19.16248 -0 0 9.884609 -13.2747 12.10161 7.368925 4.471085 -21.26096 -2.148139 -91.5318 24.5555 20.72725 0 0 -17.52738 6.21185 11.5285 7.359199
5.988919 104.1143 65.02513 0.4336995 -2.860483 2.440162 4.720538 -1.252383 2.134259 -0 11.67665 -0 -9.450743 -10.5937 -0.1704491 -2.884104 -12.3298 -8.106697 -0 60.41192 -0 -5.884307 -4.927091 12.23043 -1.163367 0.9037354 7.011566 1.086473 10.36076 -5.583667 0.5664164 22.8175 6.701916 3.958501 -21.525 6.577225 5.306744 -17.04831 11.78358 85.92571 36.88823 -16.79343 -0 0 10.66175 -14.97339 12.00058 8.35783 4.704719 -21.07958 -1.966694 -91.75663 24.45344 20.97249 0 0 -16.85041 5.748272 11.54583 7.639481
6.288524 104.3946 69.98765 0.9679547 -4.160391 2.024456 4.298124 3.466006 1.881818 -0 9.240035 -0 -8.568123 -11.25284 -0.06117399 -1.749722 -17.44703 -6.760576 -0 54.4945 -0 -5.639875 -5.836802 14.71338 -1.614213 1.454526 7.365612 0.5630824 10.35756 -4.734187 0.796069 23.20821 6.360758 3.885627 -20.47066 6.317841 4.634975 -17.90858 11.80953 84.17064 35.83321 -13.88637 -0 0 12.45369 -17.16463 11.91973 9.597116 5.09651 -20.58023 -1.897492 -92.01383 23.97545 21.20663 0 0 -15.85846 5.105941 11.19201 7.925722
6.628948 103.9752 74.95627 0.9890927 -4.964697 1.57173 4.27583 7.591181 1.771618 -0 7.275446 -0 -7.337657 -12.71995 0.0601899 -0.1109546 -21.94773 -5.17109 -0 45.15629 -0 -5.642135 -6.650991 16.7963 -1.554692 1.884638 7.463705 0.08412632 10.15825 -4.013355 0.9622916 23.24638 6.143228 3.73618 -19.54063 6.199361 3.770518 -19.00437 11.76053 82.1952 34.18998 -10.71867 -0 0 15.22267 -19.52251 11.81425 10.99676 5.44919 -19.74848 -1.922653 -92.43446 23.37197 21.87025 0 0 -14.4744 4.234596 10.54415 8.439496
